<?xml version="1.0" encoding="UTF-8" standalone="no"?>
<svg
   width="512"
   height="512"
   viewBox="0 0 512 512"
   fill="none"
   version="1.1"
   id="svg10"
   sodipodi:docname="sound-on.svg"
   inkscape:version="1.2.2 (b0a8486541, 2022-12-01)"
   xmlns:inkscape="http://www.inkscape.org/namespaces/inkscape"
   xmlns:sodipodi="http://sodipodi.sourceforge.net/DTD/sodipodi-0.dtd"
   xmlns="http://www.w3.org/2000/svg"
   xmlns:svg="http://www.w3.org/2000/svg">
  <defs
     id="defs14" />
  <sodipodi:namedview
     id="namedview12"
     pagecolor="#ffffff"
     bordercolor="#000000"
     borderopacity="0.25"
     inkscape:showpageshadow="2"
     inkscape:pageopacity="0.0"
     inkscape:pagecheckerboard="0"
     inkscape:deskcolor="#d1d1d1"
     showgrid="false"
     inkscape:zoom="1.9492188"
     inkscape:cx="256"
     inkscape:cy="256"
     inkscape:window-width="2560"
     inkscape:window-height="1371"
     inkscape:window-x="0"
     inkscape:window-y="0"
     inkscape:window-maximized="1"
     inkscape:current-layer="svg10" />
  <path
     d="m 34.329,140.8 h 99.0709 L 264.7289,64 V 448 L 133.3999,371.2 H 34.329 Z m 102.3999,202.691 102.4,59.882 V 108.6266 l -102.4,59.8824 z M 111.1289,166.4 H 59.929 v 179.2 h 51.1999 z"
     fill="#4b4b4b"
     id="path2" />
  <path
     d="m 388.3369,415.435 c 39.378,-39.378 63.733,-93.778 63.733,-153.867 0,-60.088 -24.355,-114.488 -63.733,-153.8661 L 406.4389,89.6 c 0.13,0.1305 0.261,0.2611 0.391,0.3919 45.364,45.5711 70.84,107.2601 70.84,171.5761 0,64.193 -25.378,125.768 -70.578,171.313 -0.218,0.219 -0.435,0.438 -0.653,0.656 z"
     fill="#4b4b4b"
     id="path4" />
  <path
     d="m 370.2349,397.333 -18.102,-18.102 c 30.112,-30.113 48.737,-71.713 48.737,-117.663 0,-45.95 -18.625,-87.55 -48.737,-117.662 l 18.102,-18.102 c 34.745,34.745 56.235,82.745 56.235,135.764 0,53.02 -21.49,101.02 -56.235,135.765 z"
     fill="#4b4b4b"
     id="path6" />
  <path
     d="m 334.0309,361.129 -18.102,-18.102 c 20.847,-20.847 33.741,-49.647 33.741,-81.459 0,-31.811 -12.894,-60.611 -33.741,-81.458 l 18.102,-18.102 c 25.48,25.479 41.239,60.679 41.239,99.56 0,38.881 -15.759,74.081 -41.239,99.561 z"
     fill="#4b4b4b"
     id="path8" />
</svg>
